<?xml version="1.0" encoding="UTF-8"?>
<svg version="1.1" xmlns="http://www.w3.org/2000/svg" width="512" height="512">
<path d="M0 0 C168.96 0 337.92 0 512 0 C512 168.96 512 337.92 512 512 C343.04 512 174.08 512 0 512 C0 343.04 0 174.08 0 0 Z " fill="#F5F6F0" transform="translate(0,0)"/>
<path d="M0 0 C24.97297297 4.68243243 24.97297297 4.68243243 35.0625 13.64453125 C37.1521627 15.38216039 37.1521627 15.38216039 41 15 C43.01959316 13.64268671 43.01959316 13.64268671 45 11.8125 C52.30090542 5.88276957 60.6146061 2.54146503 70 2 C63.62357332 8.57569001 57.23445634 14.01962225 49.26171875 18.5859375 C46.42387311 20.36020369 44.28985378 22.57544894 42 25 C39.6875 26.3125 39.6875 26.3125 38 27 C37.34 26.29875 36.68 25.5975 36 24.875 C27.61777421 16.58643037 18.27708469 12.2220242 7 9 C7.33 24.18 7.66 39.36 8 55 C11.96 56.32 15.92 57.64 20 59 C26.83315407 62.06009948 32.53750537 65.90167168 38 71 C40.81917403 69.68933137 43.0957568 68.21135629 45.5 66.25 C52.94421662 60.58350675 60.93743582 57.07032716 70 55 C69.99363525 54.09233887 69.98727051 53.18467773 69.98071289 52.24951172 C69.97356412 48.86012845 69.99773534 45.4739006 70.04272461 42.08496094 C70.05581156 40.62245424 70.05664676 39.1597819 70.04467773 37.69726562 C70.0295739 35.58560638 70.05947027 33.47847655 70.09765625 31.3671875 C70.10551147 29.46622314 70.10551147 29.46622314 70.11352539 27.52685547 C71 24 71 24 78 18 C78 32.52 78 47.04 78 62 C72.72 63.32 67.44 64.64 62 66 C54.97853536 69.29156395 54.97853536 69.29156395 49 74 C49.8353125 73.60167969 49.8353125 73.60167969 50.6875 73.1953125 C51.450625 72.84210938 52.21375 72.48890625 53 72.125 C53.7425 71.77695313 54.485 71.42890625 55.25 71.0703125 C61.78470518 68.52697554 68.05544703 67.66385489 75 67.375 C75.77472656 67.33632812 76.54945313 67.29765625 77.34765625 67.2578125 C79.23143415 67.16478643 81.11568256 67.08136825 83 67 C82.99777939 66.31317642 82.99555878 65.62635284 82.99327087 64.91871643 C82.97122105 57.79794838 82.95609467 50.67718996 82.94506836 43.55639648 C82.94002617 40.89558519 82.93319264 38.23477668 82.92456055 35.57397461 C82.91248991 31.75894484 82.90677071 27.94395156 82.90234375 24.12890625 C82.89718246 22.93100967 82.89202118 21.7331131 82.88670349 20.49891663 C82.88662796 19.3978508 82.88655243 18.29678497 82.88647461 17.16235352 C82.884254 16.18750504 82.88203339 15.21265656 82.87974548 14.20826721 C83 12 83 12 84 11 C86.31 11 88.62 11 91 11 C91 32.12 91 53.24 91 75 C83.74 75.33 76.48 75.66 69 76 C62.89385328 77.21387254 56.98768319 78.41067668 51 80 C51 80.66 51 81.32 51 82 C51.79664063 82.22429687 52.59328125 82.44859375 53.4140625 82.6796875 C58.02076296 84.37583647 62.11719741 86.70070092 66.375 89.125 C67.20644531 89.59292969 68.03789062 90.06085938 68.89453125 90.54296875 C70.93234954 91.69070549 72.96735569 92.84313282 75 94 C75 94.66 75 95.32 75 96 C66.71957733 99.5691477 66.71957733 99.5691477 61 98 C57.08356651 96.08892466 53.37688577 93.81795194 49.6328125 91.59375 C48.48425781 90.92859375 48.48425781 90.92859375 47.3125 90.25 C46.62800781 89.84265625 45.94351563 89.4353125 45.23828125 89.015625 C42.41541293 87.73474234 40.09908896 87.20225999 37 87 C34.33978483 87.94407237 34.33978483 87.94407237 31.84765625 89.5625 C30.90599609 90.11164063 29.96433594 90.66078125 28.99414062 91.2265625 C27.04257253 92.40712468 25.09204708 93.58941221 23.14257812 94.7734375 C15.05469734 99.48353622 15.05469734 99.48353622 10.9921875 98.94140625 C8.25610625 98.08057651 5.61179431 97.18717923 3 96 C3 95.34 3 94.68 3 94 C6.62128443 91.99321599 10.24761643 89.9957352 13.875 88 C14.90753906 87.42765625 15.94007813 86.8553125 17.00390625 86.265625 C17.99003906 85.72421875 18.97617188 85.1828125 19.9921875 84.625 C20.90339355 84.12226563 21.81459961 83.61953125 22.75341797 83.1015625 C25 82 25 82 27 82 C27 81.34 27 80.68 27 80 C13.55647192 76.58102866 1.01979056 75.27452641 -13 74 C-13 53.21 -13 32.42 -13 11 C-7 11 -7 11 -5 12 C-5 30.15 -5 48.3 -5 67 C-1.7 67 1.6 67 5 67 C13.67323253 68.22445636 21.88982208 70.73937745 30 74 C20.33336298 67.89836387 11.30359429 63.88393238 0 62 C0 41.54 0 21.08 0 0 Z " fill="#1C3F5C" transform="translate(217,167)"/>
<path d="M0 0 C0 0.66 0 1.32 0 2 C-1.68175383 3.47263908 -3.42211247 4.87873465 -5.1875 6.25 C-9.35441624 9.57386746 -12.82629834 12.73191845 -16 17 C-15.01 17.99 -14.02 18.98 -13 20 C-13.81041748 20.67506592 -14.62083496 21.35013184 -15.45581055 22.0456543 C-18.60871696 25.70685 -18.64811589 27.49738746 -18.70703125 32.26953125 C-18.72971321 33.29103523 -18.72971321 33.29103523 -18.75285339 34.33317566 C-18.79560078 36.49329063 -18.80455435 38.65200493 -18.8125 40.8125 C-18.83565489 42.28324002 -18.86102231 43.75394698 -18.88867188 45.22460938 C-18.9513916 48.81637971 -18.98383125 52.40768404 -19 56 C-19.8516272 56.26828613 -19.8516272 56.26828613 -20.72045898 56.54199219 C-31.68636027 60.08240847 -41.84964005 64.67245831 -50 73 C-53.19352279 71.5204321 -55.90933568 69.69669468 -58.75 67.625 C-65.5758225 62.81499058 -71.93922556 59.81508187 -79.99609375 57.61328125 C-82 57 -82 57 -83 56 C-83.09295815 54.55710213 -83.11746513 53.10970215 -83.11352539 51.66381836 C-83.11344986 50.7429393 -83.11337433 49.82206024 -83.11329651 48.87327576 C-83.10813522 47.87224319 -83.10297394 46.87121063 -83.09765625 45.83984375 C-83.0962413 44.82024063 -83.09482635 43.80063751 -83.09336853 42.75013733 C-83.08775097 39.47922893 -83.0751955 36.20838787 -83.0625 32.9375 C-83.05748726 30.72591244 -83.05292396 28.51432382 -83.04882812 26.30273438 C-83.03777584 20.86846643 -83.02102063 15.43423803 -83 10 C-75.55594494 10.90542602 -75.55594494 10.90542602 -72.02734375 12.671875 C-71.35509766 13.00703125 -70.68285156 13.3421875 -69.99023438 13.6875 C-69.31283203 14.038125 -68.63542969 14.38875 -67.9375 14.75 C-67.25623047 15.08515625 -66.57496094 15.4203125 -65.87304688 15.765625 C-60.27046257 18.60728159 -55.54469953 21.68295071 -52 27 C-48.86512789 25.95504263 -47.8013918 24.7808733 -45.58203125 22.4609375 C-41.54019324 18.72847474 -36.57156028 15.99425242 -31.9375 13.0625 C-28.03447714 10.32207969 -24.53515561 7.19420151 -21 4 C-20.34 5.32 -19.68 6.64 -19 8 C-18.46632813 7.4225 -17.93265625 6.845 -17.3828125 6.25 C-11.69414513 0.5810166 -8.00852076 -1.203786 0 0 Z " fill="#F2F2EB" transform="translate(307,166)"/>
<path d="M0 0 C2.31 1.98 4.62 3.96 7 6 C8.12229004 6.77230957 9.24458008 7.54461914 10.40087891 8.34033203 C14.42808095 12.49130902 13.72129054 18.39563349 13.67977905 23.80978394 C13.64914431 25.3914311 13.61784841 26.97306557 13.5859375 28.5546875 C13.5747377 30.18277418 13.56620121 31.81088118 13.56021118 33.43899536 C13.53737394 37.71057612 13.4784969 41.98091994 13.4119873 46.25201416 C13.35045322 50.61575591 13.32317257 54.97969884 13.29296875 59.34375 C13.22874676 67.89639906 13.12643158 76.44804538 13 85 C24.54473827 85.14776827 36.08795646 85.23013738 47.63369465 85.23059464 C52.99597447 85.23282843 58.35622932 85.25700427 63.71801758 85.33251953 C68.89947849 85.40466799 74.07810999 85.41761803 79.25996971 85.39070892 C81.2298714 85.39065342 83.19989431 85.41140267 85.16933632 85.4539566 C96.61047598 86.01486303 96.61047598 86.01486303 106.61877441 81.37640381 C109.48526412 78.50062151 111.74472498 75.36925559 114 72 C115.04837653 70.65241712 116.10487394 69.31096792 117.1796875 67.984375 C117.62352783 67.43547607 118.06736816 66.88657715 118.5246582 66.32104492 C122.70048787 61.46270757 125.94188515 58.7627925 132.49609375 58.18359375 C137.69673131 58.05596002 142.83720452 58.38128462 148 59 C140.80301668 74.15059721 125.75068313 90.21730016 111 98 C94.17767315 103.84945595 74.58665637 101.49359046 57.14135742 100.40325928 C49.53780144 99.97479262 41.92388016 99.8202822 34.31160736 99.61739349 C22.85367184 99.2825012 11.46136363 98.61181656 0 98 C0 65.66 0 33.32 0 0 Z " fill="#BF9C4F" transform="translate(146,216)"/>
<path d="M0 0 C15.50680275 7.31394227 35.19348634 24.90256417 41.13320923 41.08792114 C45.10993719 56.63510715 43.55411066 73.30879699 42.47192383 89.14593506 C42.03044029 96.31567147 41.87216031 103.49715109 41.66360474 110.67671204 C41.31956134 121.47453365 40.62990492 132.19829715 40 143 C7 143 -26 143 -60 143 C-58.02 140.69 -56.04 138.38 -54 136 C-53.04229706 134.87967377 -52.08459412 133.75934753 -51.09786987 132.60507202 C-47.79707161 129.38670997 -45.04255699 129.2722974 -40.43408203 129.31884766 C-39.3354911 129.31753342 -39.3354911 129.31753342 -38.21470642 129.31619263 C-35.81129564 129.3203489 -33.41073104 129.36689926 -31.0078125 129.4140625 C-29.33488489 129.42526183 -27.66193752 129.43379854 -25.98898315 129.43978882 C-21.59905063 129.46262969 -17.21032107 129.52151028 -12.82086182 129.5880127 C-8.33646923 129.6495387 -3.85188106 129.67682574 0.6328125 129.70703125 C9.42242528 129.7712597 18.21106273 129.87357966 27 130 C27.47733354 119.49813041 27.80510483 109.00230219 27.95596504 98.4903965 C28.03048861 93.60481263 28.15124364 88.73069354 28.38867188 83.85009766 C30.1892665 59.27271273 30.1892665 59.27271273 20.12255859 37.88037109 C16.22279816 33.73135522 11.97273472 30.15365382 7.4992485 26.64578629 C6.92908634 26.19806744 6.35892418 25.75034859 5.77148438 25.2890625 C4.94164976 24.63947886 4.94164976 24.63947886 4.09505081 23.97677231 C0.41787013 20.89743017 -0.95156153 18.53364314 -1.66748047 13.80712891 C-1.8864569 9.00176323 -1.22514817 4.63880889 0 0 Z " fill="#BE9B4F" transform="translate(326,171)"/>
<path d="M0 0 C7.69807753 0.39100117 15.40462391 0.53288308 23.10986328 0.71850586 C34.71818621 1.02510091 46.27266514 1.63844148 57.88378906 2.19726562 C57.88378906 34.20726562 57.88378906 66.21726562 57.88378906 99.19726562 C45.32852681 89.78081894 45.32852681 89.78081894 44.28251648 83.70437622 C44.29917107 81.77910599 44.29917107 81.77910599 44.31616211 79.81494141 C44.31506691 78.74561119 44.31506691 78.74561119 44.31394958 77.65467834 C44.31741159 75.31651638 44.35620129 72.98038859 44.39550781 70.64257812 C44.40484101 69.01448657 44.41195473 67.38638092 44.41694641 65.75827026 C44.43597667 61.48686501 44.485042 57.21631884 44.54046631 52.94525146 C44.59174533 48.58145772 44.61447883 44.21752425 44.63964844 39.85351562 C44.69316568 31.3010394 44.77842893 22.74925958 44.88378906 14.19726562 C33.02639883 14.14254763 21.16981716 14.1309485 9.31235504 14.17391968 C3.8059357 14.19253015 -1.6996684 14.19646326 -7.20605469 14.16650391 C-12.52332894 14.13811928 -17.83924358 14.14874608 -23.15644836 14.18606567 C-25.18174461 14.19349424 -27.20714249 14.18702573 -29.23234558 14.16622925 C-41.75432491 13.51434728 -41.75432491 13.51434728 -52.31884766 19.09887695 C-53.94047241 21.15231706 -53.94047241 21.15231706 -55.11621094 23.19726562 C-55.66535156 24.04675781 -56.21449219 24.89625 -56.78027344 25.77148438 C-57.22113281 26.57199219 -57.66199219 27.3725 -58.11621094 28.19726562 C-62.0248563 33.90012887 -66.74843674 40.2236243 -73.77978516 41.79101562 C-79.92931647 42.32785451 -85.99686565 41.89162563 -92.11621094 41.19726562 C-91.56305206 40.57178581 -91.56305206 40.57178581 -90.99871826 39.93367004 C-88.3314861 36.87612609 -85.77615949 33.80024799 -83.41796875 30.49682617 C-60.67727054 -1.13826319 -36.98680377 -2.08244241 0 0 Z " fill="#737152" transform="translate(308.1162109375,99.802734375)"/>
<path d="M0 0 C32.34 0 64.68 0 98 0 C96.02 2.31 94.04 4.62 92 7 C91.20306229 7.95766769 90.40612457 8.91533539 89.58503723 9.90202332 C86.13434965 12.70254859 84.04904556 12.60518778 79.6394043 12.56762695 C78.91690994 12.56835709 78.19441559 12.56908722 77.45002747 12.56983948 C75.07398053 12.56637001 72.69992096 12.52754413 70.32421875 12.48828125 C68.67227754 12.47895072 67.02032245 12.47183574 65.36836243 12.46684265 C61.0295462 12.44779141 56.69157265 12.39870766 52.35308838 12.34332275 C47.92235716 12.29208929 43.4914892 12.26931992 39.06054688 12.24414062 C30.37331207 12.19058628 21.68676099 12.10529726 13 12 C12.85210066 22.8755595 12.76986219 33.74950285 12.76940536 44.62612534 C12.76717343 49.67791113 12.74308067 54.72754576 12.66748047 59.77880859 C12.59522473 64.66206548 12.58241575 69.54232092 12.60929108 74.4260025 C12.6093465 76.28065012 12.58866329 78.13542802 12.5460434 79.98958588 C12.2121465 92.21672658 12.2121465 92.21672658 18.17645645 102.4409523 C20.67116946 104.80642286 23.27240837 106.90343451 26 109 C27.46544072 110.28359744 28.92582101 111.57307099 30.375 112.875 C30.93960938 113.34679687 31.50421875 113.81859375 32.0859375 114.3046875 C32.71757812 114.86414063 33.34921875 115.42359375 34 116 C34.51030762 116.37817871 35.02061523 116.75635742 35.54638672 117.14599609 C38.23424701 119.36805566 39.7959878 120.9600556 40.48095703 124.45166016 C40.58987576 127.28202737 40.52446253 130.04670895 40.375 132.875 C40.33439453 134.33679688 40.33439453 134.33679688 40.29296875 135.828125 C40.22258833 138.22105929 40.12421408 140.60935662 40 143 C35.41361791 139.16837133 31.06431387 135.1982851 26.875 130.9375 C26.37613281 130.43412109 25.87726563 129.93074219 25.36328125 129.41210938 C24.42700122 128.46727326 23.49177013 127.52139524 22.55810547 126.57397461 C21.78684326 125.79485718 21.78684326 125.79485718 21 125 C20.31229523 124.28264175 19.62459045 123.56528351 18.91604614 122.82618713 C16.75883469 120.65182245 14.47043403 118.76281743 12.06665039 116.86645508 C4.73057125 110.78616261 -0.71820969 105.45609967 -1.70191956 95.64811707 C-1.90478186 90.31213278 -1.7675363 85.02120468 -1.5625 79.6875 C-1.53259238 77.37874257 -1.509848 75.06988236 -1.49389648 72.76098633 C-1.43330763 66.73468962 -1.27662933 60.71473706 -1.09863281 54.69091797 C-0.90477367 47.43655517 -0.83247099 40.18004919 -0.73937988 32.92382812 C-0.58512071 21.94483043 -0.27835861 10.97970065 0 0 Z " fill="#163C5B" transform="translate(146,102)"/>
<path d="M0 0 C1.70884005 1.62339805 3.37446717 3.29319053 5 5 C5.66 5.66 6.32 6.32 7 7 C7.44370229 12.59064885 7.44370229 12.59064885 7 15 C6.50642502 15.41316971 6.01285004 15.82633942 5.50431824 16.25202942 C3.3350199 18.772686 3.60157213 20.64750361 3.56762695 23.94018555 C3.54783279 25.16122482 3.52803864 26.3822641 3.50764465 27.64030457 C3.49805977 29.61852959 3.49805977 29.61852959 3.48828125 31.63671875 C3.47143569 33.00008263 3.4532856 34.36343097 3.43388367 35.72676086 C3.38636347 39.31221662 3.3565676 42.89760938 3.33044434 46.48327637 C3.30064871 50.14327351 3.25427673 53.80305784 3.20898438 57.46289062 C3.12136038 64.64194472 3.06143582 71.82048242 3 79 C-14.82 79 -32.64 79 -51 79 C-49.02 76.69 -47.04 74.38 -45 72 C-43.99259766 70.57880859 -43.99259766 70.57880859 -42.96484375 69.12890625 C-39.9552363 65.31905636 -37.46422013 62.3684785 -32.54920959 61.63352966 C-29.7294081 61.55162567 -26.9475028 61.60164183 -24.12890625 61.71484375 C-22.6666864 61.74572083 -22.6666864 61.74572083 -21.17492676 61.77722168 C-18.781949 61.8307247 -16.39165345 61.90555675 -14 62 C-14.02664734 61.40024353 -14.05329468 60.80048706 -14.08074951 60.18255615 C-14.34812862 53.88821079 -14.52795839 47.59549747 -14.65917969 41.296875 C-14.71919353 38.95310876 -14.80083963 36.60978551 -14.90527344 34.26757812 C-15.84292544 12.6831967 -15.84292544 12.6831967 -9.75128174 5.95074463 C-3.36938109 0 -3.36938109 0 0 0 Z " fill="#1B405E" transform="translate(340,212)"/>
<path d="M0 0 C2.31 1.98 4.62 3.96 7 6 C8.42119141 7.02480469 8.42119141 7.02480469 9.87109375 8.0703125 C13.58114288 11.04061059 16.61568799 13.53372721 17.36647034 18.35177612 C17.44825379 21.03729672 17.39858306 23.68295209 17.28515625 26.3671875 C17.25427917 27.75828735 17.25427917 27.75828735 17.22277832 29.17749023 C17.16929565 31.45306804 17.09448382 33.72581735 17 36 C17.63512009 35.97113205 18.27024017 35.9422641 18.92460632 35.91252136 C25.59207056 35.62278691 32.25772509 35.428018 38.92993164 35.28588867 C41.41244217 35.22088628 43.89446221 35.13244558 46.37524414 35.01928711 C68.15519095 34.0513868 68.15519095 34.0513868 74.60791016 38.95166016 C77.89722078 41.98413207 80.51648825 45.28809151 83 49 C81.22016169 51.75032203 79.63022772 53.99364033 77 56 C73.24899284 56.77024901 69.74290818 56.8439891 66 56 C65.34 55.01 64.68 54.02 64 53 C61.21401827 52.52120602 61.21401827 52.52120602 57.89794922 52.56762695 C56.61677216 52.54783279 55.33559509 52.52803864 54.01559448 52.50764465 C52.61196031 52.50087434 51.20832454 52.49442754 49.8046875 52.48828125 C48.37263436 52.47144159 46.94059607 52.45329232 45.50857544 52.43388367 C41.73733153 52.38629942 37.96614779 52.356545 34.19470215 52.33044434 C29.6707948 52.2954491 25.14711865 52.2384127 20.62339783 52.18505096 C13.74896072 52.10643818 6.87482825 52.05590859 0 52 C0 34.84 0 17.68 0 0 Z " fill="#183E5D" transform="translate(169,239)"/>
<path d="M0 0 C2.71484375 -0.43359375 2.71484375 -0.43359375 5.9375 -0.4375 C7.52884766 -0.46650391 7.52884766 -0.46650391 9.15234375 -0.49609375 C10.56193359 -0.25052734 10.56193359 -0.25052734 12 0 C12.42742996 0.65897278 12.85485992 1.31794556 13.29524231 1.99688721 C14.87176173 4.27428491 14.87176173 4.27428491 17.75248718 4.51898193 C18.86501358 4.52786438 19.97753998 4.53674683 21.1237793 4.54589844 C23.01540047 4.57547638 23.01540047 4.57547638 24.94523621 4.60565186 C26.32156328 4.60731501 27.69789093 4.60854588 29.07421875 4.609375 C30.48242601 4.62435466 31.89061568 4.64108137 33.29878235 4.65948486 C37.00266317 4.70319575 40.70630701 4.72316536 44.41040039 4.73822021 C48.19105922 4.75777814 51.97146799 4.79953294 55.75195312 4.83984375 C63.16812875 4.91728664 70.58320837 4.95763044 78 5 C78 22.16 78 39.32 78 57 C75.69 55.02 73.38 53.04 71 51 C70.05253906 50.31679687 69.10507812 49.63359375 68.12890625 48.9296875 C64.41885712 45.95938941 61.38431201 43.46627279 60.63352966 38.64822388 C60.55174621 35.96270328 60.60141694 33.31704791 60.71484375 30.6328125 C60.73542847 29.7054126 60.75601318 28.7780127 60.77722168 27.82250977 C60.83070435 25.54693196 60.90551618 23.27418265 61 21 C60.06491859 21.0199855 60.06491859 21.0199855 59.11094666 21.04037476 C52.60583183 21.17341247 46.10110516 21.26373384 39.5949707 21.32958984 C37.1690297 21.35970966 34.74319712 21.40061464 32.31762695 21.45263672 C28.82476008 21.52565833 25.33333628 21.55950597 21.83984375 21.5859375 C20.22069313 21.63238907 20.22069313 21.63238907 18.5688324 21.67977905 C13.38696228 21.68208016 9.95081444 21.53429958 5.8984375 18.109375 C4.90359502 17.10042897 3.93356227 16.06590109 3 15 C2.26910156 14.22914063 1.53820312 13.45828125 0.78515625 12.6640625 C0.21667969 11.99117187 -0.35179687 11.31828125 -0.9375 10.625 C-1.52402344 9.93664062 -2.11054688 9.24828125 -2.71484375 8.5390625 C-3.13894531 8.03117188 -3.56304687 7.52328125 -4 7 C-2.79618552 4.50638429 -1.54571278 2.31856917 0 0 Z " fill="#173D5D" transform="translate(265,120)"/>
<path d="M0 0 C17.16 0 34.32 0 52 0 C48.76288222 6.47423555 44.47926493 12.47739269 38 16 C34.31337361 16.66740517 30.78147348 16.55030777 27.05078125 16.359375 C26.08160767 16.33343262 25.11243408 16.30749023 24.1138916 16.28076172 C21.74042695 16.21347089 19.37132306 16.11930332 17 16 C17.02664734 16.59975647 17.05329468 17.19951294 17.08074951 17.81744385 C17.34812862 24.11178921 17.52795839 30.40450253 17.65917969 36.703125 C17.71919353 39.04689124 17.80083963 41.39021449 17.90527344 43.73242188 C18.79871988 64.29920857 18.79871988 64.29920857 14.27539062 70.28710938 C11.48040208 73.32403362 8.43568717 75.72632653 5 78 C1.19294436 76.20222373 -1.33442088 74.3319739 -4 71 C-4.5 67.375 -4.5 67.375 -4 64 C-3.50360519 63.55790695 -3.00721039 63.1158139 -2.49577332 62.6603241 C-0.29498924 60.21743065 -0.60109909 58.30661208 -0.56762695 55.05981445 C-0.54783279 53.83877518 -0.52803864 52.6177359 -0.50764465 51.35969543 C-0.50125473 50.04087875 -0.49486481 48.72206207 -0.48828125 47.36328125 C-0.47143569 45.99991737 -0.4532856 44.63656903 -0.43388367 43.27323914 C-0.38636347 39.68778338 -0.3565676 36.10239062 -0.33044434 32.51672363 C-0.30064871 28.85672649 -0.25427673 25.19694216 -0.20898438 21.53710938 C-0.12136038 14.35805528 -0.06143582 7.17951758 0 0 Z " fill="#C09C4E" transform="translate(169,125)"/>
<path d="M0 0 C2.5 1.5 2.5 1.5 4 4 C4.72458907 8.99161357 4.61762984 10.94405222 2.0625 15.3125 C-2.01613696 19.50538449 -7.18277983 20.93220593 -12.921875 21.0703125 C-14.82171816 21.02507814 -16.72123281 20.94213793 -18.6171875 20.8125 C-21.08447548 20.77750389 -21.08447548 20.77750389 -22.8203125 22.5 C-23.20960938 22.995 -23.59890625 23.49 -24 24 C-24 22.02 -24 20.04 -24 18 C-24.66 17.67 -25.32 17.34 -26 17 C-26.391875 17.48597656 -26.78375 17.97195313 -27.1875 18.47265625 C-29.54853844 20.46223822 -30.94463692 20.43295333 -34 20.4375 C-34.86625 20.45683594 -35.7325 20.47617187 -36.625 20.49609375 C-39 20 -39 20 -40.8125 18.16015625 C-42 16 -42 16 -42 13 C-42.68707031 13.42152344 -43.37414062 13.84304688 -44.08203125 14.27734375 C-44.98308594 14.82519531 -45.88414062 15.37304688 -46.8125 15.9375 C-47.70582031 16.48277344 -48.59914063 17.02804687 -49.51953125 17.58984375 C-53.28408654 19.73000825 -56.17209289 20.15856237 -60.4375 20.1875 C-61.85869141 20.20876953 -61.85869141 20.20876953 -63.30859375 20.23046875 C-66.04501644 19.99614518 -67.66428123 19.39701383 -70 18 C-70.66 18.66 -71.32 19.32 -72 20 C-74.71484375 20.3359375 -74.71484375 20.3359375 -77.9375 20.375 C-78.99839844 20.40335937 -80.05929688 20.43171875 -81.15234375 20.4609375 C-84 20 -84 20 -85.87890625 18.2890625 C-87.1682692 15.65642595 -87.24128629 13.89543552 -87 11 C-93.59485554 13.95761651 -98.63980871 16.27961743 -102 23 C-102.268151 26.55300082 -102.24088646 29.30945882 -101.0625 32.6875 C-97.48705007 36.6963378 -93.42633822 38.71067602 -88.01660156 39.16748047 C-83.33693967 39.33740053 -78.67647935 39.20656841 -74 39 C-77.25858833 42.49134464 -79.70698118 44.69378941 -84.515625 45.3359375 C-90.89998866 45.4271427 -95.75921028 44.83170946 -101 41 C-105.57415738 36.19127045 -106.42439727 32.083158 -106.33984375 25.62890625 C-105.45560888 18.78879056 -100.68463192 14.30656301 -95.55078125 10.12890625 C-94 9 -94 9 -92 8 C-93.45817797 7.83197949 -94.9165484 7.66562857 -96.375 7.5 C-97.18710938 7.4071875 -97.99921875 7.314375 -98.8359375 7.21875 C-100.96912825 6.96647649 -100.96912825 6.96647649 -103 7 C-103 7.99 -103 8.98 -103 10 C-103.66 10 -104.32 10 -105 10 C-105.35555556 4.66666667 -105.35555556 4.66666667 -104 2.125 C-98.55062169 -0.9402753 -91.17032291 1.4459115 -85.5 3 C-84.40945312 3.28617187 -84.40945312 3.28617187 -83.296875 3.578125 C-81.52893469 4.04337245 -79.76411067 4.52043593 -78 5 C-78.66 6.65 -79.32 8.3 -80 10 C-81.65 10 -83.3 10 -85 10 C-84.67 10.99 -84.34 11.98 -84 13 C-80.8030106 14.5984947 -77.47002029 14.50260215 -74 14 C-70.99834751 11.78825606 -69.45867555 9.40357628 -68 6 C-67.34 6 -66.68 6 -66 6 C-65.855625 7.134375 -65.71125 8.26875 -65.5625 9.4375 C-65.38828522 12.80777201 -65.38828522 12.80777201 -64 14 C-58.07713488 14.40847346 -54.40912312 13.70456156 -49 11 C-48.195625 10.608125 -47.39125 10.21625 -46.5625 9.8125 C-46.046875 9.544375 -45.53125 9.27625 -45 9 C-48.82517513 6.60926555 -52.59665524 6.44033448 -57 6 C-57 6.66 -57 7.32 -57 8 C-57.66 8 -58.32 8 -59 8 C-58.25 3.25 -58.25 3.25 -56 1 C-50.42820141 0.51124574 -46.39911138 1.34746248 -41.1875 3.265625 C-38.13461959 4.29052056 -35.19577706 4.66002372 -32 5 C-32.66 6.65 -33.32 8.3 -34 10 C-35.65 10 -37.3 10 -39 10 C-38.01 11.98 -38.01 11.98 -37 14 C-33.75511206 14.67038093 -33.75511206 14.67038093 -30 14 C-28.07411276 12.05706951 -26.65231106 10.04206196 -25.1640625 7.75 C-24.77992188 7.1725 -24.39578125 6.595 -24 6 C-23.67 6 -23.34 6 -23 6 C-22.505 8.97 -22.505 8.97 -22 12 C-21.34 12 -20.68 12 -20 12 C-18.62603709 10.33987809 -18.62603709 10.33987809 -17.25 8.25 C-12.40474234 1.6492142 -8.18009753 -1.05549646 0 0 Z " fill="#1E405D" transform="translate(307,398)"/>
<path d="M0 0 C24.97297297 4.68243243 24.97297297 4.68243243 35.0625 13.64453125 C37.1521627 15.38216039 37.1521627 15.38216039 41 15 C43.01959316 13.64268671 43.01959316 13.64268671 45 11.8125 C52.30090542 5.88276957 60.6146061 2.54146503 70 2 C63.62357332 8.57569001 57.23445634 14.01962225 49.26171875 18.5859375 C46.42387311 20.36020369 44.28985378 22.57544894 42 25 C39.6875 26.3125 39.6875 26.3125 38 27 C37.34 26.29875 36.68 25.5975 36 24.875 C27.61777421 16.58643037 18.27708469 12.2220242 7 9 C7.33 24.18 7.66 39.36 8 55 C11.96 56.32 15.92 57.64 20 59 C23.47265625 60.6328125 23.47265625 60.6328125 26.0625 62.125 C26.94035156 62.62257812 27.81820312 63.12015625 28.72265625 63.6328125 C30.51170351 64.70685459 32.26377269 65.84251512 34 67 C34 67.66 34 68.32 34 69 C32.37373596 70.38232443 30.7074998 71.71937515 29 73 C27.99582031 72.45730469 26.99164063 71.91460937 25.95703125 71.35546875 C24.57592838 70.63203392 23.19439392 69.90942263 21.8125 69.1875 C21.15830078 68.83107422 20.50410156 68.47464844 19.83007812 68.10742188 C13.09486538 64.62809396 7.94888355 63.83435774 0 62 C0 41.54 0 21.08 0 0 Z " fill="#1B3E5A" transform="translate(217,167)"/>
<path d="M0 0 C3.3 0 6.6 0 10 0 C17.24372851 14.89541426 24.4212996 29.79545073 31 45 C27.7 45 24.4 45 21 45 C17 37.25 17 37.25 17 35 C9.08 35 1.16 35 -7 35 C-7.66 36.98 -8.32 38.96 -9 41 C-9.66 42.32 -10.32 43.64 -11 45 C-13.97 45 -16.94 45 -20 45 C-18.05242164 38.83755301 -15.78716891 33.06584858 -12.98828125 27.24609375 C-12.61519333 26.45977066 -12.24210541 25.67344757 -11.85771179 24.86329651 C-10.68081186 22.38569443 -9.49680093 19.9115715 -8.3125 17.4375 C-7.50668594 15.74436686 -6.70134307 14.05100937 -5.89648438 12.35742188 C-3.9364205 8.23567093 -1.96997768 4.11702129 0 0 Z " fill="#1C3F5C" transform="translate(209,333)"/>
<path d="M0 0 C2.97 0 5.94 0 9 0 C9 5.94 9 11.88 9 18 C16.59 18 24.18 18 32 18 C32 12.06 32 6.12 32 0 C34.97 0 37.94 0 41 0 C41 14.85 41 29.7 41 45 C38.03 45 35.06 45 32 45 C32 38.73 32 32.46 32 26 C24.41 26 16.82 26 9 26 C9 32.27 9 38.54 9 45 C6.03 45 3.06 45 0 45 C0 30.15 0 15.3 0 0 Z " fill="#1A3E5B" transform="translate(325,333)"/>
<path d="M0 0 C2.97 0 5.94 0 9 0 C9 5.94 9 11.88 9 18 C16.26 18 23.52 18 31 18 C31 12.06 31 6.12 31 0 C33.97 0 36.94 0 40 0 C40 14.85 40 29.7 40 45 C37.03 45 34.06 45 31 45 C31 38.73 31 32.46 31 26 C23.74 26 16.48 26 9 26 C9 32.27 9 38.54 9 45 C6.03 45 3.06 45 0 45 C0 30.15 0 15.3 0 0 Z " fill="#1D415D" transform="translate(248,333)"/>
<path d="M0 0 C0.91652344 0.01160156 1.83304687 0.02320313 2.77734375 0.03515625 C3.69644531 0.04417969 4.61554688 0.05320313 5.5625 0.0625 C6.27277344 0.07410156 6.98304688 0.08570313 7.71484375 0.09765625 C7.71484375 0.75765625 7.71484375 1.41765625 7.71484375 2.09765625 C6.17570928 3.42167547 4.58024943 4.68034882 2.96484375 5.91015625 C-14.92577061 20.26852111 -30.97306354 41.26221592 -42.28515625 61.09765625 C-45.90601208 59.89070431 -46.63211305 58.66473586 -48.91015625 55.66015625 C-55.57765387 46.22598769 -55.57765387 46.22598769 -64.28515625 39.09765625 C-64.28515625 38.43765625 -64.28515625 37.77765625 -64.28515625 37.09765625 C-62.53515625 35.80859375 -62.53515625 35.80859375 -60.28515625 34.47265625 C-59.54265625 34.02664062 -58.80015625 33.580625 -58.03515625 33.12109375 C-57.45765625 32.78335938 -56.88015625 32.445625 -56.28515625 32.09765625 C-55.6096875 32.74734375 -54.93421875 33.39703125 -54.23828125 34.06640625 C-53.34625 34.90171875 -52.45421875 35.73703125 -51.53515625 36.59765625 C-50.6534375 37.43296875 -49.77171875 38.26828125 -48.86328125 39.12890625 C-46.29595636 41.50226532 -46.29595636 41.50226532 -42.28515625 41.09765625 C-40.44856366 39.33743305 -40.44856366 39.33743305 -38.78515625 36.91015625 C-33.7060476 30.22961223 -28.05428242 24.17923421 -22.28515625 18.09765625 C-21.57230469 17.34226563 -20.85945313 16.586875 -20.125 15.80859375 C-15.56282103 11.10589592 -10.61719447 6.98015733 -5.5078125 2.8828125 C-2.02630669 0.0865943 -2.02630669 0.0865943 0 0 Z " fill="#C29F54" transform="translate(299.28515625,165.90234375)"/>
<path d="M0 0 C0.69480469 -0.020625 1.38960937 -0.04125 2.10546875 -0.0625 C6.87785607 -0.09845019 10.03895996 0.81630844 14.125 3.25 C13.25 8 13.25 8 12.125 10.25 C9.36223823 9.72731534 6.7989124 9.14130413 4.125 8.25 C2.29537564 8.10671616 0.45998763 8.02959657 -1.375 8 C-2.81359375 7.96132813 -2.81359375 7.96132813 -4.28125 7.921875 C-6.90847912 8.03508171 -6.90847912 8.03508171 -8.7109375 9.640625 C-10.05008647 11.19022056 -10.05008647 11.19022056 -10 13.25 C-7.76712779 17.2195506 -2.83454136 17.97887652 1.3046875 19.1484375 C13.37845929 22.57070841 13.37845929 22.57070841 16.125 27.25 C17.14003007 32.42925598 16.78826148 36.07324577 14.1875 40.6875 C8.37734129 45.54906137 2.1005098 46.79550034 -5.3828125 46.5390625 C-11.55463619 45.82320834 -16.89808987 44.26436495 -20.875 39.25 C-19.885 37.27 -18.895 35.29 -17.875 33.25 C-17.36453125 33.53875 -16.8540625 33.8275 -16.328125 34.125 C-9.8267802 37.44483564 -4.10773319 37.91245754 3.125 37.25 C4.61 36.755 4.61 36.755 6.125 36.25 C6.125 34.27 6.125 32.29 6.125 30.25 C4.89523438 29.86328125 3.66546875 29.4765625 2.3984375 29.078125 C0.7654678 28.55257153 -0.86733603 28.02650249 -2.5 27.5 C-3.30824219 27.24734375 -4.11648437 26.9946875 -4.94921875 26.734375 C-10.40568834 24.95991335 -15.83628054 23.18900869 -19.24609375 18.2734375 C-20.43230337 14.45693699 -20.11598295 11.02520075 -18.875 7.25 C-13.6301254 0.63212157 -8.0505589 0.05908667 0 0 Z " fill="#1E405C" transform="translate(166.875,332.75)"/>
<path d="M0 0 C6 0 6 0 8 1 C8 19.15 8 37.3 8 56 C11.3 56 14.6 56 18 56 C25.30943436 57.06141117 32.37619555 58.68809778 39 62 C39 62.66 39 63.32 39 64 C38.34 64 37.68 64 37 64 C36.505 65.485 36.505 65.485 36 67 C29.53108342 66.44510422 23.16185218 65.59374777 16.76171875 64.5 C11.20105693 63.76088815 5.59304432 63.43023418 0 63 C0 42.21 0 21.42 0 0 Z " fill="#21445F" transform="translate(204,178)"/>
<path d="M0 0 C2.31 0 4.62 0 7 0 C7 21.12 7 42.24 7 64 C-0.26 64.33 -7.52 64.66 -15 65 C-18.465 65.495 -18.465 65.495 -22 66 C-25.4375 65.5625 -25.4375 65.5625 -28 65 C-27.5 62.125 -27.5 62.125 -26 59 C-20.35302784 57.15099142 -14.90884783 56.6207753 -9 56.375 C-8.22527344 56.33632812 -7.45054687 56.29765625 -6.65234375 56.2578125 C-4.76856585 56.16478643 -2.88431744 56.08136825 -1 56 C-1.00222061 55.31317642 -1.00444122 54.62635284 -1.00672913 53.91871643 C-1.02877895 46.79794838 -1.04390533 39.67718996 -1.05493164 32.55639648 C-1.05997383 29.89558519 -1.06680736 27.23477668 -1.07543945 24.57397461 C-1.08751009 20.75894484 -1.09322929 16.94395156 -1.09765625 13.12890625 C-1.10281754 11.93100967 -1.10797882 10.7331131 -1.11329651 9.49891663 C-1.11340981 7.84731789 -1.11340981 7.84731789 -1.11352539 6.16235352 C-1.115746 5.18750504 -1.11796661 4.21265656 -1.12025452 3.20826721 C-1 1 -1 1 0 0 Z " fill="#244762" transform="translate(301,178)"/>
<path d="M0 0 C0 14.52 0 29.04 0 44 C-5.28 45.32 -10.56 46.64 -16 48 C-25.41525327 52.46496547 -32.49897775 57.11373328 -38 66 C-38.33 66 -38.66 66 -39 66 C-40.1538213 61.84202204 -40.69596659 58.28406103 -40 54 C-36.62092306 49.99225758 -32.52767161 47.57196194 -28 45 C-26.94683594 44.40058594 -25.89367187 43.80117187 -24.80859375 43.18359375 C-19.25819474 40.24181139 -14.0968232 38.406456 -8 37 C-8.00112793 36.09233887 -8.00225586 35.18467773 -8.00341797 34.24951172 C-7.99345365 30.86034259 -7.95677966 27.4735965 -7.90234375 24.08496094 C-7.88424864 22.62248861 -7.87660348 21.15984622 -7.87988281 19.69726562 C-7.89859338 5.96371105 -7.89859338 5.96371105 -4.0078125 2.0078125 C-1 0 -1 0 0 0 Z " fill="#BE9D52" transform="translate(295,185)"/>
<path d="M0 0 C2.97 0 5.94 0 9 0 C9 14.85 9 29.7 9 45 C6.03 45 3.06 45 0 45 C0 30.15 0 15.3 0 0 Z " fill="#193C59" transform="translate(302,333)"/>
<path d="M0 0 C2.5 1.5 2.5 1.5 4 4 C4.72458907 8.99161357 4.61762984 10.94405222 2.0625 15.3125 C-2.01613696 19.50538449 -7.18277983 20.93220593 -12.921875 21.0703125 C-14.82171816 21.02507814 -16.72123281 20.94213793 -18.6171875 20.8125 C-21.08447548 20.77750389 -21.08447548 20.77750389 -22.8203125 22.5 C-23.20960938 22.995 -23.59890625 23.49 -24 24 C-24.12939298 16.10702792 -21.5285231 12.24623895 -16.3359375 6.3984375 C-11.15719335 1.08113163 -7.56371674 -0.97596345 0 0 Z " fill="#24445D" transform="translate(307,398)"/>
<path d="M0 0 C0.33 0.66 0.66 1.32 1 2 C1.81726563 2.26554688 2.63453125 2.53109375 3.4765625 2.8046875 C8.1086923 4.37611956 12.13514177 6.71091804 16.375 9.125 C17.20644531 9.59292969 18.03789062 10.06085938 18.89453125 10.54296875 C20.93234954 11.69070549 22.96735569 12.84313282 25 14 C25 14.66 25 15.32 25 16 C16.73186111 19.56385297 16.73186111 19.56385297 11 18 C7.8833967 16.51505166 4.91624571 14.80478523 1.9375 13.0625 C-4.81805284 9.09393868 -4.81805284 9.09393868 -12 6 C-9.4347341 4.28982274 -7.12039035 3.09582189 -4.3125 1.875 C-3.50425781 1.52179688 -2.69601562 1.16859375 -1.86328125 0.8046875 C-1.24839844 0.53914062 -0.63351562 0.27359375 0 0 Z " fill="#BC9D55" transform="translate(267,247)"/>
<path d="M0 0 C-6.37642668 6.57569001 -12.76554366 12.01962225 -20.73828125 16.5859375 C-23.57612689 18.36020369 -25.71014622 20.57544894 -28 23 C-30.3125 24.3125 -30.3125 24.3125 -32 25 C-36.875 20.25 -36.875 20.25 -38 18 C-37.34 18 -36.68 18 -36 18 C-35.67 16.02 -35.34 14.04 -35 12 C-32.525 12.99 -32.525 12.99 -30 14 C-29.0925 13.13375 -28.185 12.2675 -27.25 11.375 C-20.16492557 5.28558776 -9.55364075 -0.56197887 0 0 Z " fill="#23455F" transform="translate(287,169)"/>
<path d="M0 0 C-0.804375 0.61875 -1.60875 1.2375 -2.4375 1.875 C-5.03874519 3.74164041 -5.03874519 3.74164041 -6 6 C-6.1346515 10.8955438 -5.69296109 14.14712481 -2.5625 18 C0.92107763 20.71888986 2.20250537 21.14125747 6.5 20.625 C7.2940625 20.53476563 8.088125 20.44453125 8.90625 20.3515625 C11.05104576 20.09653096 11.05104576 20.09653096 13 19 C11.47759883 23.26272329 8.96724754 24.98031034 5 27 C0.26770988 27.84656353 -3.06446103 27.46776949 -7.375 25.3125 C-10.91923195 22.19020043 -12.69388372 20.22444494 -13.3515625 15.4453125 C-13.58838765 10.8459188 -13.71328619 7.15075368 -10.75 3.4375 C-4.89817232 -1.74934726 -4.89817232 -1.74934726 0 0 Z " fill="#C19F54" transform="translate(256,142)"/>
<path d="M0 0 C0.99 0 1.98 0 3 0 C2.99419922 1.19544434 2.98839844 2.39088867 2.98242188 3.62255859 C2.93359195 18.62855883 3.19353498 33.62261147 3.5 48.625 C3.57176545 52.23350187 3.64295928 55.84201459 3.71398926 59.45053101 C3.75794318 61.67305601 3.80243506 63.89557045 3.84753418 66.11807251 C3.86755493 67.11116425 3.88757568 68.10425598 3.90820312 69.12744141 C3.92596802 69.99897858 3.94373291 70.87051575 3.96203613 71.76846313 C3.99169968 73.51210237 4 75.25610846 4 77 C1.05272535 74.67880338 0.07691153 73.52003361 -0.48101807 69.74761963 C-0.47213562 68.45966492 -0.46325317 67.17171021 -0.45410156 65.84472656 C-0.45468567 65.13213181 -0.45526978 64.41953705 -0.45587158 63.68534851 C-0.45309109 61.3366069 -0.42200323 58.9891441 -0.390625 56.640625 C-0.38316243 55.00967095 -0.37746957 53.37870793 -0.37347412 51.7477417 C-0.35821892 47.46001323 -0.31893854 43.17282881 -0.2746582 38.88531494 C-0.23370277 34.50825357 -0.21546255 30.13110409 -0.1953125 25.75390625 C-0.15244377 17.16902148 -0.08419435 8.58457846 0 0 Z " fill="#21415A" transform="translate(353,114)"/>
<path d="M0 0 C0.66 0 1.32 0 2 0 C2 24.09 2 48.18 2 73 C31.04 73 60.08 73 90 73 C90 72.01 90 71.02 90 70 C91.98 70.495 91.98 70.495 94 71 C91.59667024 73.80939118 91.1891104 73.9819394 87.2224884 74.36076355 C85.61423681 74.36947439 84.00584474 74.36145427 82.39770508 74.34057617 C81.51944565 74.34101425 80.64118622 74.34145233 79.73631287 74.34190369 C76.83049363 74.33981201 73.92524982 74.31646306 71.01953125 74.29296875 C69.00599991 74.28737415 66.99246449 74.28310341 64.97892761 74.28010559 C59.676979 74.26864616 54.37527657 74.23916945 49.07342529 74.20599365 C42.71333148 74.16992372 36.35315539 74.15613685 29.99298859 74.13863373 C20.32848778 74.10953285 10.66452726 74.05205311 1 74 C0.67 49.58 0.34 25.16 0 0 Z " fill="#F8F2D7" transform="translate(158,227)"/>
<path d="M0 0 C0.33 0 0.66 0 1 0 C1 27.72 1 55.44 1 84 C-36.3125 84.375 -36.3125 84.375 -48.0949707 84.47802734 C-51.57968948 84.51793524 -51.57968948 84.51793524 -55.06437683 84.56045532 C-56.61670807 84.57814299 -58.1690865 84.59194721 -59.72148132 84.60269165 C-62.07274298 84.61971859 -64.42356044 84.64905758 -66.7746582 84.68115234 C-67.46649106 84.68332449 -68.15832392 84.68549664 -68.87112141 84.6877346 C-72.469304 84.75103635 -73.91423884 84.94282589 -77 87 C-77 85.68 -77 84.36 -77 83 C-51.59 83 -26.18 83 0 83 C0 55.61 0 28.22 0 0 Z " fill="#F9F2D3" transform="translate(352,217)"/>
<path d="M0 0 C0.66 0 1.32 0 2 0 C3.17112946 2.62309099 4.33705964 5.24828142 5.5 7.875 C5.83386719 8.62136719 6.16773438 9.36773437 6.51171875 10.13671875 C6.98544922 11.20986328 6.98544922 11.20986328 7.46875 12.3046875 C7.76201172 12.96452637 8.05527344 13.62436523 8.35742188 14.30419922 C9 16 9 16 9 18 C3.72 18 -1.56 18 -7 18 C-6.09789442 13.48947211 -4.88930512 10.29874909 -2.9375 6.1875 C-2.11572266 4.44533203 -2.11572266 4.44533203 -1.27734375 2.66796875 C-0.85582031 1.78753906 -0.43429688 0.90710938 0 0 Z " fill="#E7E9E6" transform="translate(213,343)"/>
<path d="M0 0 C9.9 0 19.8 0 30 0 C30 32.01 30 64.02 30 97 C27.69 95.02 25.38 93.04 23 91 C24.98 90.01 24.98 90.01 27 89 C28.41066319 85.72111666 28.11397414 82.18663662 28.09765625 78.6652832 C28.09270142 76.73595695 28.09270142 76.73595695 28.08764648 74.76765442 C28.08146805 73.73850387 28.08146805 73.73850387 28.07516479 72.68856239 C28.06231909 70.52024474 28.05586229 68.35198895 28.05102539 66.18363953 C28.03769637 60.78666013 28.01376442 55.38973797 27.98962402 49.99279785 C27.9696358 45.44631947 27.95409088 40.89986509 27.94406128 36.3533535 C27.93771883 34.24840839 27.92520324 32.14356427 27.91235352 30.03865051 C27.87624945 20.32352142 28.3338828 10.68963034 29 1 C28.01809692 1.05818909 28.01809692 1.05818909 27.01635742 1.11755371 C24.34465288 1.27397965 21.67237516 1.41799907 19 1.5625 C17.59814453 1.64661133 17.59814453 1.64661133 16.16796875 1.73242188 C10.61487364 2.02366812 5.49386553 1.87461303 0 1 C0 0.67 0 0.34 0 0 Z " fill="#283E4B" transform="translate(336,102)"/>
<path d="M0 0 C2.375 1.5 2.375 1.5 4 3 C3.9375 4.8125 3.9375 4.8125 3 7 C-2.8320961 10.54997154 -8.31627474 10.32633017 -15 10 C-12.24555505 3.78899668 -7.19586438 -1.43917288 0 0 Z " fill="#E7ECE8" transform="translate(304,403)"/>
<path d="M0 0 C0.99 0.33 1.98 0.66 3 1 C2.59072266 1.33781494 2.18144531 1.67562988 1.75976562 2.02368164 C-5.74215138 8.39418466 -12.5699569 15.46108161 -19.5 22.4375 C-20.81226585 23.75479059 -22.12476395 25.07184986 -23.4375 26.38867188 C-26.62768506 29.5897861 -29.81470651 32.79401865 -33 36 C-29.88923188 36.82882484 -27.16543406 37.13473736 -23.9375 37.125 C-22.65166016 37.12886719 -22.65166016 37.12886719 -21.33984375 37.1328125 C-18.84435799 37.09365135 -18.84435799 37.09365135 -16 36 C-16 35.34 -16 34.68 -16 34 C-14 32.375 -14 32.375 -12 31 C-11.34 31.33 -10.68 31.66 -10 32 C-12.66349199 35.52089031 -15.11005076 38.57127326 -19.54638672 39.57763672 C-22.37136581 39.68724166 -25.11608688 39.6129946 -27.9375 39.4375 C-28.90751953 39.40591797 -29.87753906 39.37433594 -30.87695312 39.34179688 C-33.25466761 39.25980672 -35.62514757 39.13898111 -38 39 C-33.69372744 33.85170256 -29.17688069 29.04247928 -24.4140625 24.31640625 C-23.71227875 23.61603745 -23.010495 22.91566864 -22.28744507 22.19407654 C-20.06898864 19.98116973 -17.84706185 17.77178584 -15.625 15.5625 C-14.11044534 14.05296686 -12.59612015 12.54320343 -11.08203125 11.03320312 C-7.39066901 7.35280298 -3.69645931 3.67528043 0 0 Z " fill="#C1A462" transform="translate(254,102)"/>
<path d="M0 0 C0 0.99 0 1.98 0 3 C2.475 3.495 2.475 3.495 5 4 C5 4.33 5 4.66 5 5 C4.13217896 5.10489746 4.13217896 5.10489746 3.24682617 5.21191406 C-11.15829135 6.85815714 -11.15829135 6.85815714 -24.94140625 11.1328125 C-26.94594125 11.97722762 -28.88006866 12.52890415 -31 13 C-23.95437552 5.08239229 -10.65690699 -0.66605669 0 0 Z " fill="#EBECE3" transform="translate(295,229)"/>
<path d="M0 0 C0.66 1.32 1.32 2.64 2 4 C1.36191406 4.55429687 0.72382813 5.10859375 0.06640625 5.6796875 C-0.75988281 6.40414063 -1.58617187 7.12859375 -2.4375 7.875 C-3.67306641 8.95394531 -3.67306641 8.95394531 -4.93359375 10.0546875 C-7.05982155 11.83238745 -7.05982155 11.83238745 -8 14 C-5.36 14 -2.72 14 0 14 C0 14.33 0 14.66 0 15 C-1.65 15 -3.3 15 -5 15 C-3.16666667 18.16666667 -3.16666667 18.16666667 0 20 C-0.75925781 19.96519531 -1.51851563 19.93039062 -2.30078125 19.89453125 C-3.79158203 19.85392578 -3.79158203 19.85392578 -5.3125 19.8125 C-6.29863281 19.77769531 -7.28476562 19.74289062 -8.30078125 19.70703125 C-11.04574389 19.75721892 -11.04574389 19.75721892 -12.85546875 21.51171875 C-13.23316406 22.00285156 -13.61085938 22.49398438 -14 23 C-14.13015023 15.06083621 -11.44425029 11.32374166 -6.32421875 5.3828125 C-4.31628348 3.32425702 -2.35930558 1.63045832 0 0 Z " fill="#2C4F69" transform="translate(297,399)"/>
<path d="M0 0 C2.75 0.25 2.75 0.25 5 1 C4.18958252 1.83805176 3.37916504 2.67610352 2.54418945 3.53955078 C-0.36926124 7.05100292 -0.65013893 9.777874 -0.70703125 14.3671875 C-0.72215256 15.04677521 -0.73727386 15.72636292 -0.75285339 16.42654419 C-0.79550713 18.57637283 -0.80454519 20.72479161 -0.8125 22.875 C-0.83566219 24.34118273 -0.86103112 25.80733236 -0.88867188 27.2734375 C-0.9512989 30.8489321 -0.98381164 34.42395892 -1 38 C-2.98 38.66 -4.96 39.32 -7 40 C-6.34 39.01 -5.68 38.02 -5 37 C-4.34 37 -3.68 37 -3 37 C-3 27.1 -3 17.2 -3 7 C-3.66 7 -4.32 7 -5 7 C-5.268125 7.57234375 -5.53625 8.1446875 -5.8125 8.734375 C-7.04132636 11.07884634 -8.42522176 13.12404938 -10 15.25 C-10.515625 15.95640625 -11.03125 16.6628125 -11.5625 17.390625 C-12.2740625 18.18726563 -12.2740625 18.18726563 -13 19 C-13.66 19 -14.32 19 -15 19 C-13.40212025 15.35752143 -11.15207958 12.55600321 -8.625 9.5 C-7.85414063 8.5615625 -7.08328125 7.623125 -6.2890625 6.65625 C-2.21989221 1.93434591 -2.21989221 1.93434591 0 0 Z " fill="#F4EDD5" transform="translate(289,184)"/>
<path d="M0 0 C-0.99138366 3.19445845 -2.01970719 4.01174045 -4.9375 5.75 C-9.79920489 7.65554111 -14.8669102 7.25062102 -20 7 C-20.33 6.01 -20.66 5.02 -21 4 C-21.66 3.34 -22.32 2.68 -23 2 C-19.25511971 1.06377993 -15.83459431 1.02912723 -11.98828125 1.1015625 C-7.42400194 0.8684166 -4.55578675 -1.75222567 0 0 Z " fill="#1B3C58" transform="translate(261,411)"/>
<path d="M0 0 C3.44025166 0.07519676 6.07651279 0.69450639 9.1875 2.25 C8.8575 3.57 8.5275 4.89 8.1875 6.25 C3.8975 5.92 -0.3925 5.59 -4.8125 5.25 C-4.8125 5.91 -4.8125 6.57 -4.8125 7.25 C-5.4725 7.25 -6.1325 7.25 -6.8125 7.25 C-6.00383604 2.12846162 -5.59701744 0.36701754 0 0 Z " fill="#20425D" transform="translate(254.8125,398.75)"/>
<path d="M0 0 C0.33 0 0.66 0 1 0 C1 14.19 1 28.38 1 43 C-1.31 41.02 -3.62 39.04 -6 37 C-4.68 36.34 -3.36 35.68 -2 35 C-0.49304476 31.53969623 -0.79027664 27.54678571 -0.68359375 23.828125 C-0.66281265 23.1457074 -0.64203156 22.46328979 -0.62062073 21.76019287 C-0.55547948 19.59022644 -0.49640596 17.42014376 -0.4375 15.25 C-0.39428103 13.77472779 -0.35066568 12.29946713 -0.30664062 10.82421875 C-0.19983482 7.21626834 -0.09846847 3.60818867 0 0 Z " fill="#213A4A" transform="translate(365,156)"/>
<path d="M0 0 C0.66 0.33 1.32 0.66 2 1 C1.67 1.845625 1.34 2.69125 1 3.5625 C-0.72937208 9.50721652 0.01393915 14.9603773 1 21 C0.01 21.33 -0.98 21.66 -2 22 C-4.54806853 17.22237151 -4.70472223 12.27722228 -4 7 C-2.91750695 4.34553879 -1.65118471 2.37357803 0 0 Z " fill="#274660" transform="translate(205,414)"/>
<path d="M0 0 C2 1 4 2 6 3 C6.33 2.01 6.66 1.02 7 0 C10.875 1.75 10.875 1.75 12 4 C11.01 5.485 11.01 5.485 10 7 C9.2575 6.62875 8.515 6.2575 7.75 5.875 C5.05716353 4.70484137 5.05716353 4.70484137 2.6875 5.875 C1.8521875 6.431875 1.8521875 6.431875 1 7 C0.01 5.68 -0.98 4.36 -2 3 C-1.34 2.01 -0.68 1.02 0 0 Z " fill="#284255" transform="translate(233,423)"/>
<path d="M0 0 C0.33 0 0.66 0 1 0 C1 14.52 1 29.04 1 44 C-0.65 44 -2.3 44 -4 44 C-2.02 43.505 -2.02 43.505 0 43 C0 30.13 0 17.26 0 4 C-1.65 4.66 -3.3 5.32 -5 6 C-3.35830472 3.97945196 -1.69088222 1.97956942 0 0 Z " fill="#BBA465" transform="translate(294,185)"/>
<path d="M0 0 C0.66 0 1.32 0 2 0 C2.33 2.64 2.66 5.28 3 8 C2.01 8.495 2.01 8.495 1 9 C1 9.99 1 10.98 1 12 C0.38125 12.144375 -0.2375 12.28875 -0.875 12.4375 C-3.03258322 12.93152225 -3.03258322 12.93152225 -5 14 C-4.34580901 8.93001981 -2.1453591 4.58009223 0 0 Z " fill="#23435F" transform="translate(239,404)"/>
<path d="M0 0 C5.80342274 1.48805711 10.17590879 4.59097555 15 8 C13 9 13 9 10.86328125 8.29296875 C10.02152344 7.92816406 9.17976562 7.56335938 8.3125 7.1875 C4.24097983 5.47970707 0.26865883 4.11356317 -4 3 C-2.68 2.67 -1.36 2.34 0 2 C0 1.34 0 0.68 0 0 Z " fill="#CED7DD" transform="translate(233,233)"/>
<path d="M0 0 C2.5625 1.5 2.5625 1.5 5 4 C5.15374792 6.87728254 4.61846819 9.14553142 4 12 C1.69 10.02 -0.62 8.04 -3 6 C-2.34 5.34 -1.68 4.68 -1 4 C-0.3574765 1.93125966 -0.3574765 1.93125966 0 0 Z " fill="#F2F0E3" transform="translate(335,170)"/>
<path d="M0 0 C0.33 0 0.66 0 1 0 C1 9.9 1 19.8 1 30 C-0.98 30.66 -2.96 31.32 -5 32 C-4.01 30.515 -4.01 30.515 -3 29 C-2.34 29 -1.68 29 -1 29 C-0.67 19.43 -0.34 9.86 0 0 Z " fill="#EDE2BF" transform="translate(287,192)"/>
<path d="M0 0 C0.33 1.32 0.66 2.64 1 4 C-1.95664519 5.4783226 -4.74229737 5.06032783 -8 5 C-8.66 3.68 -9.32 2.36 -10 1 C-6.59437148 0.22157062 -3.49234244 -0.09978121 0 0 Z " fill="#133756" transform="translate(302,413)"/>
<path d="M0 0 C0 3.55151105 -0.54465213 3.93432729 -2.875 6.4375 C-5.09540328 8.83489194 -6.64922381 11.01648949 -8 14 C-8.35338623 11.03155565 -8.5417682 8.84401782 -6.88671875 6.265625 C-5.64496832 4.79651181 -4.32662082 3.39295186 -3 2 C-5.31 2.66 -7.62 3.32 -10 4 C-10 3.34 -10 2.68 -10 2 C-6.3558226 -0.4294516 -4.28758728 -0.16179575 0 0 Z " fill="#F2ECD4" transform="translate(257,140)"/>
<path d="M0 0 C3.76687864 1.88343932 4.79421646 2.69132469 7 6 C5.35 6 3.7 6 2 6 C1.67 10.62 1.34 15.24 1 20 C0.67 20 0.34 20 0 20 C0 13.4 0 6.8 0 0 Z " fill="#C8B583" transform="translate(326,171)"/>
<path d="M0 0 C0.33 0.66 0.66 1.32 1 2 C0.67 2.99 0.34 3.98 0 5 C2.64 4.67 5.28 4.34 8 4 C5.39295102 6.60704898 3.52661759 6.23905333 -0.02734375 6.265625 C-2 6 -2 6 -5 4 C-5 3.01 -5 2.02 -5 1 C-3.35 0.67 -1.7 0.34 0 0 Z " fill="#DCE4E5" transform="translate(227,407)"/>
<path d="M0 0 C2.875 -0.125 2.875 -0.125 6 0 C6.66 0.66 7.32 1.32 8 2 C7.67 2.99 7.34 3.98 7 5 C4.36 4.67 1.72 4.34 -1 4 C-0.67 2.68 -0.34 1.36 0 0 Z " fill="#183A54" transform="translate(256,400)"/>
<path d="M0 0 C1.4540625 0.0309375 1.4540625 0.0309375 2.9375 0.0625 C2.9375 1.7125 2.9375 3.3625 2.9375 5.0625 C0.9575 5.0625 -1.0225 5.0625 -3.0625 5.0625 C-3.625 3.125 -3.625 3.125 -4.0625 1.0625 C-3.0625 0.0625 -3.0625 0.0625 0 0 Z " fill="#173A54" transform="translate(302.0625,397.9375)"/>
<path d="M0 0 C0.66 0.33 1.32 0.66 2 1 C-1.63 4.63 -5.26 8.26 -9 12 C-9.99 11.67 -10.98 11.34 -12 11 C-11.34 10.67 -10.68 10.34 -10 10 C-10 9.34 -10 8.68 -10 8 C-8.35 7.34 -6.7 6.68 -5 6 C-5 5.34 -5 4.68 -5 4 C-4.34 4 -3.68 4 -3 4 C-3 3.34 -3 2.68 -3 2 C-2.01 1.34 -1.02 0.68 0 0 Z " fill="#BDA261" transform="translate(183,191)"/>
<path d="M0 0 C0.99 0.99 1.98 1.98 3 3 C1.625 4.5 1.625 4.5 0 6 C-0.66 6 -1.32 6 -2 6 C-2.33 6.66 -2.66 7.32 -3 8 C-3.33 6.35 -3.66 4.7 -4 3 C-2.68 2.01 -1.36 1.02 0 0 Z " fill="#234868" transform="translate(251,235)"/>
<path d="M0 0 C0 4.1592308 -2.24683568 6.14544435 -5 9 C-7.3125 10.875 -7.3125 10.875 -9 12 C-9.66 11.67 -10.32 11.34 -11 11 C-7.37 7.37 -3.74 3.74 0 0 Z " fill="#F4F0D6" transform="translate(258,119)"/>
<path d="M0 0 C0 4.1592308 -2.24683568 6.14544435 -5 9 C-7.3125 10.875 -7.3125 10.875 -9 12 C-9.66 11.67 -10.32 11.34 -11 11 C-7.37 7.37 -3.74 3.74 0 0 Z " fill="#C4A96D" transform="translate(273,275)"/>
<path d="M0 0 C0.33 0.66 0.66 1.32 1 2 C2.65 2 4.3 2 6 2 C6.33 2.99 6.66 3.98 7 5 C6.01 5 5.02 5 4 5 C3.67 5.66 3.34 6.32 3 7 C3 6.01 3 5.02 3 4 C1.02 4.99 1.02 4.99 -1 6 C-1.99 4.68 -2.98 3.36 -4 2 C-2.68 1.34 -1.36 0.68 0 0 Z " fill="#446074" transform="translate(262,407)"/>
<path d="M0 0 C3.3 0.33 6.6 0.66 10 1 C7.49183541 3.50816459 6.09162264 4.61410019 3 6 C3 4.35 3 2.7 3 1 C2.01 0.67 1.02 0.34 0 0 Z " fill="#DBE3E5" transform="translate(206,404)"/>
<path d="M0 0 C3.875 1.75 3.875 1.75 5 4 C4.01 5.485 4.01 5.485 3 7 C2.01 6.67 1.02 6.34 0 6 C-0.38218767 4.34385343 -0.71395102 2.67542976 -1 1 C-0.67 0.67 -0.34 0.34 0 0 Z " fill="#2D485D" transform="translate(240,423)"/>
<path d="M0 0 C1.32 0.33 2.64 0.66 4 1 C3.01171875 2.48828125 3.01171875 2.48828125 1 4 C-1.81127043 4.21714241 -4.3883345 4.28284276 -7.1875 4.1875 C-7.93708984 4.17396484 -8.68667969 4.16042969 -9.45898438 4.14648438 C-11.30629767 4.11118539 -13.15324066 4.05737917 -15 4 C-15 3.67 -15 3.34 -15 3 C-10.05 3 -5.1 3 0 3 C0 2.01 0 1.02 0 0 Z " fill="#F5EDCC" transform="translate(248,297)"/>
<path d="M0 0 C0.33 0 0.66 0 1 0 C1.33 2.97 1.66 5.94 2 9 C2.99 8.34 3.98 7.68 5 7 C5 7.66 5 8.32 5 9 C5.66 9.33 6.32 9.66 7 10 C4.35261084 11.4606285 3.10551666 12 0 12 C0 8.04 0 4.08 0 0 Z " fill="#283E46" transform="translate(255,240)"/>
<path d="M0 0 C1.98 0 3.96 0 6 0 C5.01 0.495 5.01 0.495 4 1 C4 1.99 4 2.98 4 4 C5.65 4 7.3 4 9 4 C9 4.33 9 4.66 9 5 C5.625 5.125 5.625 5.125 2 5 C1.34 4.34 0.68 3.68 0 3 C0 2.01 0 1.02 0 0 Z " fill="#DEE4E6" transform="translate(268,408)"/>
<path d="M0 0 C0.66 0 1.32 0 2 0 C2.66 1.98 3.32 3.96 4 6 C2.02 6.99 2.02 6.99 0 8 C-0.66666667 6.66666667 -1.33333333 5.33333333 -2 4 C-1.0625 1.875 -1.0625 1.875 0 0 Z " fill="#D8DFE0" transform="translate(213,343)"/>
<path d="M0 0 C0.33 0 0.66 0 1 0 C1 2.97 1 5.94 1 9 C-3 8 -3 8 -5 5 C-3.68 4.67 -2.36 4.34 -1 4 C-0.67 2.68 -0.34 1.36 0 0 Z " fill="#153753" transform="translate(364,187)"/>
<path d="M0 0 C0 0.99 0 1.98 0 3 C-2.81534937 5.65894107 -5.12793601 7.42636089 -9 8 C-9 7.34 -9 6.68 -9 6 C-8.01 5.67 -7.02 5.34 -6 5 C-6.33 4.34 -6.66 3.68 -7 3 C-4.69 2.01 -2.38 1.02 0 0 Z " fill="#C3AB72" transform="translate(268,161)"/>
<path d="M0 0 C1.32 0.99 2.64 1.98 4 3 C3.67 4.65 3.34 6.3 3 8 C1.68 7.34 0.36 6.68 -1 6 C-1 5.34 -1 4.68 -1 4 C-0.34 4 0.32 4 1 4 C0.67 2.68 0.34 1.36 0 0 Z " fill="#16334E" transform="translate(205,431)"/>
<path d="M0 0 C1.32 0.99 2.64 1.98 4 3 C3.2575 3.103125 2.515 3.20625 1.75 3.3125 C-1.1863157 4.04657893 -2.66108288 5.14499677 -5 7 C-5.66 7 -6.32 7 -7 7 C-7 6.34 -7 5.68 -7 5 C-5.46875 3.7109375 -5.46875 3.7109375 -3.5 2.375 C-2.8503125 1.92898437 -2.200625 1.48296875 -1.53125 1.0234375 C-1.0259375 0.68570313 -0.520625 0.34796875 0 0 Z " fill="#C9AF74" transform="translate(242,198)"/>
<path d="M0 0 C0.66 0 1.32 0 2 0 C2.33 2.64 2.66 5.28 3 8 C1.68 8.33 0.36 8.66 -1 9 C-0.67 6.03 -0.34 3.06 0 0 Z M-2 9 C-0.02 9.99 -0.02 9.99 2 11 C1.01 11.495 1.01 11.495 0 12 C-0.66 11.67 -1.32 11.34 -2 11 C-2 10.34 -2 9.68 -2 9 Z " fill="#466278" transform="translate(239,404)"/>
<path d="M0 0 C0.33 0 0.66 0 1 0 C1 2.31 1 4.62 1 7 C-0.32 7 -1.64 7 -3 7 C-2.25 2.25 -2.25 2.25 0 0 Z " fill="#2A455A" transform="translate(283,404)"/>
<path d="M0 0 C-0.39803561 2.88575819 -0.79009069 3.82189513 -3.0625 5.75 C-3.701875 6.1625 -4.34125 6.575 -5 7 C-5 3 -5 3 -3.625 1.25 C-2 0 -2 0 0 0 Z " fill="#234057" transform="translate(294,404)"/>
<path d="M0 0 C0.66 0.99 1.32 1.98 2 3 C0.54618103 3.69699552 -0.91322953 4.38233866 -2.375 5.0625 C-3.18710937 5.44535156 -3.99921875 5.82820312 -4.8359375 6.22265625 C-5.55007813 6.47917969 -6.26421875 6.73570312 -7 7 C-7.66 6.67 -8.32 6.34 -9 6 C-6.03 4.02 -3.06 2.04 0 0 Z " fill="#DFDED3" transform="translate(273,235)"/>
<path d="M0 0 C0 0.99 0 1.98 0 3 C0.66 3.33 1.32 3.66 2 4 C0.02 4.99 0.02 4.99 -2 6 C-2.12375 5.360625 -2.2475 4.72125 -2.375 4.0625 C-2.684375 3.0415625 -2.684375 3.0415625 -3 2 C-3.66 1.67 -4.32 1.34 -5 1 C-2 0 -2 0 0 0 Z " fill="#32526B" transform="translate(305,411)"/>
<path d="M0 0 C2 3 2 3 2 5 C1.34 5 0.68 5 0 5 C0 5.99 0 6.98 0 8 C-0.66 8 -1.32 8 -2 8 C-2.125 5.125 -2.125 5.125 -2 2 C-1.34 1.34 -0.68 0.68 0 0 Z " fill="#274157" transform="translate(204,400)"/>
<path d="M0 0 C0.99 0.66 1.98 1.32 3 2 C2.319375 2.5878125 2.319375 2.5878125 1.625 3.1875 C-0.27642919 5.30832487 -1.06204028 7.33042235 -2 10 C-2.66 10 -3.32 10 -4 10 C-2.8905928 6.51329166 -1.73662334 3.22515763 0 0 Z " fill="#2E4B62" transform="translate(202,348)"/>
<path d="M0 0 C0.66 0.66 1.32 1.32 2 2 C-1.465 4.97 -1.465 4.97 -5 8 C-5.66 7.67 -6.32 7.34 -7 7 C-4.69 4.69 -2.38 2.38 0 0 Z " fill="#F6F1DB" transform="translate(275,295)"/>
<path d="M0 0 C0.33 0.66 0.66 1.32 1 2 C0.0625 4.125 0.0625 4.125 -1 6 C-1.66 6 -2.32 6 -3 6 C-3.66 7.32 -4.32 8.64 -5 10 C-5.66 9.67 -6.32 9.34 -7 9 C-4.69 6.03 -2.38 3.06 0 0 Z " fill="#C5AA6A" transform="translate(263,199)"/>
<path d="M0 0 C0.33 0.66 0.66 1.32 1 2 C-0.65 3.98 -2.3 5.96 -4 8 C-4.99 7.67 -5.98 7.34 -7 7 C-4.69 4.69 -2.38 2.38 0 0 Z " fill="#C9AE6E" transform="translate(276,185)"/>
<path d="M0 0 C1.67542976 0.28604898 3.34385343 0.61781233 5 1 C3.35 2.65 1.7 4.3 0 6 C-0.38218767 4.34385343 -0.71395102 2.67542976 -1 1 C-0.67 0.67 -0.34 0.34 0 0 Z " fill="#F6F2DF" transform="translate(289,184)"/>
<path d="M0 0 C3.16115776 1.36983503 3.9927092 1.9890638 6 5 C4.35 5 2.7 5 1 5 C0.67 3.35 0.34 1.7 0 0 Z " fill="#C4A86A" transform="translate(327,172)"/>
<path d="M0 0 C0.66 0.33 1.32 0.66 2 1 C0.02 5.455 0.02 5.455 -2 10 C-2.66 10 -3.32 10 -4 10 C-2.8905928 6.51329166 -1.73662334 3.22515763 0 0 Z " fill="#2F4B60" transform="translate(195,363)"/>
<path d="M0 0 C-0.66 1.65 -1.32 3.3 -2 5 C-3.32 4.67 -4.64 4.34 -6 4 C-6 3.34 -6 2.68 -6 2 C-3 0 -3 0 0 0 Z " fill="#334E63" transform="translate(226,259)"/>
<path d="M0 0 C0.66 0 1.32 0 2 0 C1.60196439 2.88575819 1.20990931 3.82189513 -1.0625 5.75 C-1.701875 6.1625 -2.34125 6.575 -3 7 C-2.25 2.25 -2.25 2.25 0 0 Z " fill="#F5F0DB" transform="translate(278,179)"/>
<path d="M0 0 C0.556875 0.226875 1.11375 0.45375 1.6875 0.6875 C-0.2925 2.0075 -2.2725 3.3275 -4.3125 4.6875 C-5.3025 4.0275 -6.2925 3.3675 -7.3125 2.6875 C-2.88173077 -0.38942308 -2.88173077 -0.38942308 0 0 Z " fill="#C4B17C" transform="translate(254.3125,141.3125)"/>
<path d="M0 0 C0.33 0.66 0.66 1.32 1 2 C-1.3125 4.5 -1.3125 4.5 -4 7 C-4.99 7 -5.98 7 -7 7 C-4.69 4.69 -2.38 2.38 0 0 Z " fill="#F3EFD3" transform="translate(246,131)"/>
<path d="M0 0 C0.99 0.33 1.98 0.66 3 1 C0.03 3.475 0.03 3.475 -3 6 C-3 4.68 -3 3.36 -3 2 C-2.01 1.34 -1.02 0.68 0 0 Z " fill="#C7AB6E" transform="translate(213,131)"/>
<path d="M0 0 C4.875 1.75 4.875 1.75 6 4 C2.37673261 5.2077558 1.35853631 4.54311128 -2 3 C-1.34 2.01 -0.68 1.02 0 0 Z " fill="#DCE6E6" transform="translate(238,427)"/>
<path d="M0 0 C0.66 0.33 1.32 0.66 2 1 C1.34 2.98 0.68 4.96 0 7 C-0.99 6.34 -1.98 5.68 -3 5 C-2.01 3.35 -1.02 1.7 0 0 Z " fill="#365166" transform="translate(205,414)"/>
<path d="M0 0 C0.33 0.66 0.66 1.32 1 2 C-0.32 3.65 -1.64 5.3 -3 7 C-3.99 6.67 -4.98 6.34 -6 6 C-4.02 4.02 -2.04 2.04 0 0 Z " fill="#C5AD6E" transform="translate(261,287)"/>
<path d="M0 0 C0.99 0.33 1.98 0.66 3 1 C1.02 3.31 -0.96 5.62 -3 8 C-3.33 7.34 -3.66 6.68 -4 6 C-2.68 4.02 -1.36 2.04 0 0 Z " fill="#C1A568" transform="translate(278,193)"/>
</svg>
